<svg width="22" height="25" viewBox="0 0 22 25" fill="none" xmlns="http://www.w3.org/2000/svg">
<path id="bag" d="M21.6 7.93994H16.8V4.93994C16.8 2.73094 14.6508 0.939941 12 0.939941C9.3492 0.939941 7.2 2.73094 7.2 4.93994V7.93994H2.4L0 24.9399H24L21.6 7.93994ZM8.4 4.93994C8.4 3.28594 10.0152 1.93994 12 1.93994C13.9848 1.93994 15.6 3.28594 15.6 4.93994V7.93994H8.4V4.93994ZM2.6988 22.9399L4.5336 9.93994H7.2V11.4399C7.2 11.7159 7.4688 11.9399 7.8 11.9399C8.1312 11.9399 8.4 11.7159 8.4 11.4399V9.93994H15.6V11.4399C15.6 11.7159 15.8688 11.9399 16.2 11.9399C16.5312 11.9399 16.8 11.7159 16.8 11.4399V9.93994H19.4664L21.3012 22.9399H2.6988Z" fill="black"/>
</svg>
