<svg width="20" height="25" viewBox="0 0 20 25" fill="none" xmlns="http://www.w3.org/2000/svg">
<path d="M18 7.93994H14V4.93994C14 2.73094 12.209 0.939941 10 0.939941C7.791 0.939941 6 2.73094 6 4.93994V7.93994H2L0 24.9399H20L18 7.93994ZM7 4.93994C7 3.28594 8.346 1.93994 10 1.93994C11.654 1.93994 13 3.28594 13 4.93994V7.93994H7V4.93994ZM2.249 22.9399L3.778 9.93994H6V11.4399C6 11.7159 6.224 11.9399 6.5 11.9399C6.776 11.9399 7 11.7159 7 11.4399V9.93994H13V11.4399C13 11.7159 13.224 11.9399 13.5 11.9399C13.776 11.9399 14 11.7159 14 11.4399V9.93994H16.222L17.751 22.9399H2.249Z" fill="black"/>
</svg>
