<svg width="25" height="18" viewBox="0 0 25 18" fill="none" xmlns="http://www.w3.org/2000/svg">
<path fill-rule="evenodd" clip-rule="evenodd" d="M5.80005 8V9H13.8V2H3.80005V1C3.80005 0.448 4.24805 0 4.80005 0H14.8C15.352 0 15.8 0.448 15.8 1V3H20.467C21.584 3 22.067 3.576 22.403 4.107C22.997 5.047 23.939 6.539 24.512 7.485C24.7 7.797 24.8 8.155 24.8 8.52V13C24.8 14.089 24.057 15 22.8 15H21.8C21.8 16.656 20.456 18 18.8 18C17.144 18 15.8 16.656 15.8 15H11.8C11.8 16.656 10.456 18 8.80005 18C7.14405 18 5.80005 16.656 5.80005 15H4.80005C4.24805 15 3.80005 14.552 3.80005 14V8H1.80005V6H8.80005V8H5.80005ZM8.80005 13.8C9.46205 13.8 10 14.338 10 15C10 15.662 9.46205 16.2 8.80005 16.2C8.13805 16.2 7.60005 15.662 7.60005 15C7.60005 14.338 8.13805 13.8 8.80005 13.8ZM18.8 13.8C19.462 13.8 20 14.338 20 15C20 15.662 19.462 16.2 18.8 16.2C18.138 16.2 17.6 15.662 17.6 15C17.6 14.338 18.138 13.8 18.8 13.8ZM15.8 11H5.80005V13H6.56505C7.11405 12.386 7.91205 12 8.80005 12C9.68805 12 10.486 12.386 11.035 13H16.565C17.114 12.386 17.912 12 18.8 12C19.688 12 20.486 12.386 21.035 13H22.8V8.425L21.089 5.496C20.91 5.189 20.581 5 20.226 5H15.8V11ZM16.8 6V9H21.8L20.373 6.504C20.195 6.192 19.864 6 19.505 6H16.8ZM0.800049 3H8.80005V5H0.800049V3Z" fill="black"/>
</svg>
