<svg width="24" height="19" viewBox="0 0 24 19" fill="none" xmlns="http://www.w3.org/2000/svg">
<path id="car" fill-rule="evenodd" clip-rule="evenodd" d="M5 8.5V9.5H13V2.5H3V1.5C3 0.948 3.448 0.5 4 0.5H14C14.552 0.5 15 0.948 15 1.5V3.5H19.667C20.784 3.5 21.267 4.076 21.603 4.607C22.197 5.547 23.139 7.039 23.712 7.985C23.9 8.297 24 8.655 24 9.02V13.5C24 14.589 23.257 15.5 22 15.5H21C21 17.156 19.656 18.5 18 18.5C16.344 18.5 15 17.156 15 15.5H11C11 17.156 9.656 18.5 8 18.5C6.344 18.5 5 17.156 5 15.5H4C3.448 15.5 3 15.052 3 14.5V8.5H1V6.5H8V8.5H5ZM8 14.3C8.662 14.3 9.2 14.838 9.2 15.5C9.2 16.162 8.662 16.7 8 16.7C7.338 16.7 6.8 16.162 6.8 15.5C6.8 14.838 7.338 14.3 8 14.3ZM18 14.3C18.662 14.3 19.2 14.838 19.2 15.5C19.2 16.162 18.662 16.7 18 16.7C17.338 16.7 16.8 16.162 16.8 15.5C16.8 14.838 17.338 14.3 18 14.3ZM15 11.5H5V13.5H5.765C6.314 12.886 7.112 12.5 8 12.5C8.888 12.5 9.686 12.886 10.235 13.5H15.765C16.314 12.886 17.112 12.5 18 12.5C18.888 12.5 19.686 12.886 20.235 13.5H22V8.925L20.289 5.996C20.11 5.689 19.781 5.5 19.426 5.5H15V11.5ZM16 6.5V9.5H21L19.573 7.004C19.395 6.692 19.064 6.5 18.705 6.5H16ZM0 3.5H8V5.5H0V3.5Z" fill="black"/>
</svg>
