<svg width="24" height="24" viewBox="0 0 24 24" fill="none" xmlns="http://www.w3.org/2000/svg">
<path id="heart" d="M6.28 3.12176C9.516 3.12285 11.253 6.93012 12 8.61012C12.75 6.92249 14.469 3.13267 17.726 3.13267C19.784 3.13267 22 4.56067 22 7.69485C22 11.4498 17.256 16.2596 12 21.8767C6.742 16.2574 2 11.4487 2 7.69485C2 4.77558 3.965 3.12067 6.28 3.12176ZM6.281 0.939941C3.098 0.939941 0 3.32576 0 7.69485C0 12.7796 5.57 17.9789 12 24.9399C18.43 17.9789 24 12.7796 24 7.69485C24 3.31921 20.903 0.95085 17.726 0.95085C15.522 0.95085 13.28 2.08758 12 4.48321C10.715 2.07667 8.478 0.939941 6.281 0.939941Z" fill="black"/>
</svg>
