<svg width="24" height="23" viewBox="0 0 24 23" fill="none" xmlns="http://www.w3.org/2000/svg">
<path d="M6.28 2.93994C9.516 2.94094 11.253 6.43094 12 7.97094C12.75 6.42394 14.469 2.94994 17.726 2.94994C19.784 2.94994 22 4.25894 22 7.13194C22 10.5739 17.256 14.9829 12 20.1319C6.742 14.9809 2 10.5729 2 7.13194C2 4.45594 3.965 2.93894 6.28 2.93994ZM6.281 0.939941C3.098 0.939941 0 3.12694 0 7.13194C0 11.7929 5.57 16.5589 12 22.9399C18.43 16.5589 24 11.7929 24 7.13194C24 3.12094 20.903 0.949941 17.726 0.949941C15.522 0.949941 13.28 1.99194 12 4.18794C10.715 1.98194 8.478 0.939941 6.281 0.939941Z" fill="black"/>
</svg>
