<svg width="29" height="29" viewBox="0 0 29 29" fill="none" xmlns="http://www.w3.org/2000/svg">
<path d="M14.4102 0.26001C10.5485 0.26001 7.07066 1.83851 4.54132 4.36901L1.64799 1.47568L0.410156 10.0402L9.08666 8.91318L6.18282 6.01051C8.29216 3.90118 11.1983 2.59334 14.4102 2.59334C20.8432 2.59334 26.0768 7.82701 26.0768 14.26C26.0768 20.693 20.8432 25.9267 14.4102 25.9267C9.89282 25.9267 5.97632 23.3413 4.03849 19.5765L2.03532 20.7968C4.38266 25.2337 9.04116 28.26 14.4102 28.26C22.1417 28.26 28.4102 21.9915 28.4102 14.26C28.4102 6.52851 22.1417 0.26001 14.4102 0.26001Z" fill="black"/>
</svg>
